<svg xmlns="http://www.w3.org/2000/svg" xmlns:xlink="http://www.w3.org/1999/xlink" fill="none" version="1.1" width="30.6995849609375" height="30.000001907348633" viewBox="0 0 30.6995849609375 30.000001907348633"><g><g><path d="M3.57384,29.7587C1.48011,30.7593,-0.665909,28.4702,0.194986,26.1541L9.56026,1.73705C10.4212,-0.579017,13.4182,-0.579017,14.2791,1.73705L23.6449,26.1541C24.5058,28.4699,22.3601,30.759,20.2661,29.7584L12.82,26.3728C12.2985,26.1357,11.7005,26.1336,11.1774,26.367L3.57384,29.7587ZM5.74926,24.6358C5.23035,24.9961,4.59274,24.4204,4.81771,23.7944L11.3807,7.06103C11.5429,6.60975,12.1266,6.61034,12.2879,7.0619L18.4846,23.4939C18.7085,24.1205,18.0697,24.6949,17.5514,24.3329L12.9014,21.96C12.3347,21.6708,11.6642,21.6685,11.0955,21.9538L5.74926,24.6358Z" fill-rule="evenodd" fill="#0045BE" fill-opacity="1"/></g><g transform="matrix(0.9324434995651245,-0.36131593585014343,0.3571280539035797,0.9340554475784302,-0.05762753530871123,6.6041381891946)"><rect x="17.639556884765625" y="3.4981689453125" width="4.050755500793457" height="25.993228912353516" rx="2" fill="#0B75FF" fill-opacity="1"/></g></g></svg>